<svg xmlns="http://www.w3.org/2000/svg" version="1.1" xmlns:xlink="http://www.w3.org/1999/xlink" xmlns:svgjs="http://svgjs.dev/svgjs" width="100%" height="100%" viewBox="0 0 1000 600"><rect width="1000" height="600" x="0" y="0" fill="#262223"/><g><circle r="166.66666666666666" cx="386.72033182779944" cy="408.9425620393803" fill="#ddc6b6" transform="matrix(0.5680432408124276,0,0,0.5680432408124275,0,67.70293978927583)"/><path d="M333.6280569093925 362.54009742152795L333.6280569093925 362.54009742152795L366.77877441519917 343.365517887321Q371.9772159778064 340.2975851618479 376.0464878567325 342.5985347059527Q380.1157597356586 344.8994842500576 380.1157597356586 351.0353497010038L380.1157597356586 351.0353497010038L380.1157597356586 440.00539873972394Q380.1157597356586 443.98945026516475 378.19830178223793 448.59134935337437Q376.2808438288173 453.19324844158405 373.29813145682954 457.1133847019108Q370.29411399647046 461.0122158738662 366.77877441519917 463.0148941807723L366.77877441519917 463.0148941807723L333.6280569093925 482.1894737149792Q328.2591746398146 485.25740644045226 324.2751231143738 482.95645689634745Q320.29107158893305 480.65550735224264 320.29107158893305 474.51964190129644L320.29107158893305 474.51964190129644L320.29107158893305 385.5495928625763Q320.29107158893305 381.4164057185361 322.12330918886835 376.87842189544045Q323.976851877175 372.3617431607162 327.0447846026482 368.44160690038944Q330.1127173281213 364.542775728434 333.6280569093925 362.54009742152795ZM333.6280569093925 377.8797610488935L333.6280569093925 466.84981008761366L366.77877441519917 447.6752305534067L366.77877441519917 358.70518151468656L333.6280569093925 377.8797610488935ZM353.4204840063683 351.0353497010038L366.77877441519917 358.70518151468656L366.77877441519917 447.6752305534067L353.4204840063683 440.00539873972394L353.4204840063683 351.0353497010038ZM353.4204840063683 440.00539873972394L366.77877441519917 447.6752305534067L333.6280569093925 466.84981008761366L320.29107158893305 459.1799782739309L353.4204840063683 440.00539873972394ZM362.77341780138704 334.92870289227L376.1317082102179 342.5985347059527Q371.9772159778064 340.2975851618479 366.77877441519917 343.365517887321L366.77877441519917 343.365517887321L333.6280569093925 362.54009742152795Q330.1127173281213 364.542775728434 327.0447846026482 368.44160690038944Q323.976851877175 372.3617431607162 322.12330918886835 376.87842189544045Q320.29107158893305 381.4164057185361 320.29107158893305 385.5495928625763L320.29107158893305 385.5495928625763L320.29107158893305 474.51964190129644Q320.29107158893305 480.65550735224264 324.2751231143738 482.95645689634745L324.2751231143738 482.95645689634745L310.93813779391434 475.28662508266467Q306.9540862684736 472.98567553855986 306.9540862684736 466.84981008761366L306.9540862684736 466.84981008761366L306.9540862684736 377.8797610488935Q306.9540862684736 373.74657390485334 308.7863238684089 369.2085900817577Q310.6185614683442 364.6919113470334 313.68649419381734 360.7717750867066Q316.75442691929044 356.87294391475126 320.29107158893305 354.87026560784517L320.29107158893305 354.87026560784517L353.4204840063683 335.6956860736383Q358.7893662759463 332.62775334816513 362.77341780138704 334.92870289227L362.77341780138704 334.92870289227ZM419.99888516680903 362.54009742152795L419.99888516680903 362.54009742152795L453.12829758424436 343.365517887321Q458.3480442352229 340.2975851618479 462.41731611414906 342.5985347059527Q466.4865879930752 344.8994842500576 466.4865879930752 351.0353497010038L466.4865879930752 351.0353497010038L466.4865879930752 366.37501332836933L453.12829758424436 374.0448451420521L453.12829758424436 358.70518151468656L419.99888516680903 377.8797610488935L419.99888516680903 466.84981008761366L453.12829758424436 447.6752305534067L453.12829758424436 432.33556692604117L466.4865879930752 424.6657351123584L466.4865879930752 440.00539873972394Q466.4865879930752 443.98945026516475 464.5691300396545 448.59134935337437Q462.6516720862338 453.19324844158405 459.64765462587474 457.1133847019108Q456.664942253887 461.0122158738662 453.12829758424436 463.0148941807723L453.12829758424436 463.0148941807723L419.99888516680903 482.1894737149792Q414.6300028972311 485.25740644045226 410.6459513717904 482.95645689634745Q406.66189984634957 480.65550735224264 406.66189984634957 474.51964190129644L406.66189984634957 474.51964190129644L406.66189984634957 385.5495928625763Q406.66189984634957 381.4164057185361 408.4941374462849 376.87842189544045Q410.3263750462202 372.3617431607162 413.3943077716934 368.44160690038944Q416.4622404971664 364.542775728434 419.99888516680903 362.54009742152795ZM453.12829758424436 416.9959032986756L466.4865879930752 424.6657351123584L453.12829758424436 432.33556692604117L439.7913122637849 424.6657351123584L453.12829758424436 416.9959032986756ZM439.7913122637849 424.6657351123584L453.12829758424436 432.33556692604117L453.12829758424436 447.6752305534067L439.7913122637849 440.00539873972394L439.7913122637849 424.6657351123584ZM439.7913122637849 440.00539873972394L453.12829758424436 447.6752305534067L419.99888516680903 466.84981008761366L406.66189984634957 459.1799782739309L439.7913122637849 440.00539873972394ZM439.7913122637849 351.0353497010038L453.12829758424436 358.70518151468656L453.12829758424436 374.0448451420521L439.7913122637849 366.37501332836933L439.7913122637849 351.0353497010038ZM449.1442460588036 334.92870289227L462.4812313792631 342.5985347059527Q458.3480442352229 340.2975851618479 453.12829758424436 343.365517887321L453.12829758424436 343.365517887321L419.99888516680903 362.54009742152795Q416.4622404971664 364.542775728434 413.3943077716934 368.44160690038944Q410.3263750462202 372.3617431607162 408.4941374462849 376.87842189544045Q406.66189984634957 381.4164057185361 406.66189984634957 385.5495928625763L406.66189984634957 385.5495928625763L406.66189984634957 474.51964190129644Q406.66189984634957 480.65550735224264 410.6459513717904 482.95645689634745L410.6459513717904 482.95645689634745L397.28766096295954 475.28662508266467Q393.30360943751873 472.98567553855986 393.30360943751873 466.84981008761366L393.30360943751873 466.84981008761366L393.30360943751873 377.8797610488935Q393.30360943751873 373.74657390485334 395.1571521258254 369.2085900817577Q396.98938972576076 364.6919113470334 400.05732245123386 360.7717750867066Q403.12525517670696 356.87294391475126 406.66189984634957 354.87026560784517L406.66189984634957 354.87026560784517L439.7913122637849 335.6956860736383Q445.1601945333628 332.62775334816513 449.1442460588036 334.92870289227L449.1442460588036 334.92870289227Z " fill="#262223" transform="matrix(0.5680432408124276,0,0,0.5680432408124275,0,67.70293978927583)"/><path d="M663.3943075197442 362.54009742152795L663.3943075197442 362.54009742152795L696.5450250255508 343.365517887321Q701.7434665881581 340.2975851618479 705.8127384670842 342.5985347059527Q709.8820103460102 344.8994842500576 709.8820103460102 351.0353497010038L709.8820103460102 351.0353497010038L709.8820103460102 440.00539873972394Q709.8820103460102 443.98945026516475 707.9645523925897 448.59134935337437Q706.0470944391689 453.19324844158405 703.0643820671812 457.1133847019108Q700.0603646068221 461.0122158738662 696.5450250255508 463.0148941807723L696.5450250255508 463.0148941807723L663.3943075197442 482.1894737149792Q658.0254252501662 485.25740644045226 654.0413737247254 482.95645689634745Q650.0573221992847 480.65550735224264 650.0573221992847 474.51964190129644L650.0573221992847 474.51964190129644L650.0573221992847 385.5495928625763Q650.0573221992847 381.4164057185361 651.88955979922 376.87842189544045Q653.7431024875267 372.3617431607162 656.8110352129997 368.44160690038944Q659.8789679384729 364.542775728434 663.3943075197442 362.54009742152795ZM663.3943075197442 377.8797610488935L663.3943075197442 466.84981008761366L696.5450250255508 447.6752305534067L696.5450250255508 358.70518151468656L663.3943075197442 377.8797610488935ZM683.1867346167201 351.0353497010038L696.5450250255508 358.70518151468656L696.5450250255508 447.6752305534067L683.1867346167201 440.00539873972394L683.1867346167201 351.0353497010038ZM683.1867346167201 440.00539873972394L696.5450250255508 447.6752305534067L663.3943075197442 466.84981008761366L650.0573221992847 459.1799782739309L683.1867346167201 440.00539873972394ZM692.5396684117387 334.92870289227L705.8979588205696 342.5985347059527Q701.7434665881581 340.2975851618479 696.5450250255508 343.365517887321L696.5450250255508 343.365517887321L663.3943075197442 362.54009742152795Q659.8789679384729 364.542775728434 656.8110352129997 368.44160690038944Q653.7431024875267 372.3617431607162 651.88955979922 376.87842189544045Q650.0573221992847 381.4164057185361 650.0573221992847 385.5495928625763L650.0573221992847 385.5495928625763L650.0573221992847 474.51964190129644Q650.0573221992847 480.65550735224264 654.0413737247254 482.95645689634745L654.0413737247254 482.95645689634745L640.704388404266 475.28662508266467Q636.7203368788253 472.98567553855986 636.7203368788253 466.84981008761366L636.7203368788253 466.84981008761366L636.7203368788253 377.8797610488935Q636.7203368788253 373.74657390485334 638.5525744787606 369.2085900817577Q640.3848120786959 364.6919113470334 643.452744804169 360.7717750867066Q646.5206775296421 356.87294391475126 650.0573221992847 354.87026560784517L650.0573221992847 354.87026560784517L683.1867346167201 335.6956860736383Q688.5556168862979 332.62775334816513 692.5396684117387 334.92870289227L692.5396684117387 334.92870289227ZM776.3112758878517 430.03461738193636L749.7651357771607 445.3742810093019Q744.3962535075827 448.442213734775 740.412201982142 446.14126419067014Q736.4281504567012 443.84031464656533 736.4281504567012 437.70444919561913L736.4281504567012 437.70444919561913L736.4281504567012 422.3647855682536Q736.4281504567012 418.2315984242134 738.2603880566365 413.69361460111776Q740.0926256565718 409.1769358663935 743.160558382045 405.25679960606675Q746.2284911075182 401.35796843411134 749.7651357771607 399.35529012720525L749.7651357771607 399.35529012720525L789.4991255897118 376.3457946861569L789.4991255897118 391.6854583135225L749.7651357771607 414.6949537545708L749.7651357771607 430.03461738193636L776.3112758878517 414.6949537545708Q781.5097174504589 411.6270210290977 785.515074064271 413.9279705732025Q789.4991255897118 416.2289201173074 789.4991255897118 422.3647855682536L789.4991255897118 422.3647855682536L789.4991255897118 437.70444919561913Q789.4991255897118 441.6885007210599 787.6455829014051 446.29039980926956Q785.8133453014698 450.8922988974792 782.830632929482 454.81243515780596Q779.8266154691229 458.7112663297614 776.3112758878517 460.71394463666746L776.3112758878517 460.71394463666746L736.4281504567012 483.72344007771574L736.4281504567012 468.38377645035024L776.3112758878517 445.3742810093019L776.3112758878517 430.03461738193636ZM762.9529854790208 422.3647855682536L776.3112758878517 430.03461738193636L776.3112758878517 445.3742810093019L762.9529854790208 437.70444919561913L762.9529854790208 422.3647855682536ZM762.9529854790208 437.70444919561913L776.3112758878517 445.3742810093019L736.4281504567012 468.38377645035024L723.0698600478704 460.71394463666746L762.9529854790208 437.70444919561913ZM723.0698600478704 460.71394463666746L736.4281504567012 468.38377645035024L736.4281504567012 483.72344007771574L723.0698600478704 476.053608264033L723.0698600478704 460.71394463666746ZM772.3059192740395 406.25813875951974L785.515074064271 413.9279705732025Q781.5097174504589 411.6270210290977 776.3112758878517 414.6949537545708L776.3112758878517 414.6949537545708L749.7651357771607 430.03461738193636L736.4281504567012 422.3647855682536L762.9529854790208 407.025121940888Q768.3218677485987 403.9571892154149 772.3059192740395 406.25813875951974L772.3059192740395 406.25813875951974ZM776.3112758878517 368.67596287247414L789.4991255897118 376.3457946861569L749.7651357771607 399.35529012720525Q746.2284911075182 401.35796843411134 743.160558382045 405.25679960606675Q740.0926256565718 409.1769358663935 738.2603880566365 413.69361460111776Q736.4281504567012 418.2315984242134 736.4281504567012 422.3647855682536L736.4281504567012 422.3647855682536L736.4281504567012 437.70444919561913Q736.4281504567012 443.84031464656533 740.412201982142 446.14126419067014L740.412201982142 446.14126419067014L727.0539115733111 438.47143237698737Q723.0698600478704 436.17048283288256 723.0698600478704 430.03461738193636L723.0698600478704 430.03461738193636L723.0698600478704 414.6949537545708Q723.0698600478704 410.56176661053064 724.9234027361771 406.023782787435Q726.7556403361124 401.5071040527107 729.8235730615855 397.586967792384Q732.8915057870586 393.68813662042857 736.4281504567012 391.6854583135225L736.4281504567012 391.6854583135225L776.3112758878517 368.67596287247414ZM829.5313866394615 393.21942467625905L829.5313866394615 393.21942467625905L856.0775267501524 377.8797610488935Q861.2759683127597 374.8118283234204 865.2813249265718 377.1127778675252Q869.2653764520126 379.4137274116301 869.2653764520126 385.5495928625763L869.2653764520126 385.5495928625763L869.2653764520126 400.88925648994183L856.0775267501524 408.5590883036246L856.0775267501524 393.21942467625905L829.5313866394615 408.5590883036246L829.5313866394615 466.84981008761366L856.0775267501524 451.5101464602481L856.0775267501524 436.17048283288256L869.2653764520126 428.5006510191998L869.2653764520126 443.84031464656533Q869.2653764520126 447.82436617200614 867.4118337637059 452.42626526021576Q865.5795961637706 457.02816434842543 862.5968837917828 460.94830060875216Q859.5928663314237 464.84713178070757 856.0775267501524 466.84981008761366L856.0775267501524 466.84981008761366L829.5313866394615 482.1894737149792Q824.1625043698837 485.25740644045226 820.1784528444429 482.95645689634745Q816.194401319002 480.65550735224264 816.194401319002 474.51964190129644L816.194401319002 474.51964190129644L816.194401319002 416.2289201173074Q816.194401319002 412.0957329732672 818.0266389189374 407.55774915017156Q819.8588765188728 403.0410704154472 822.9268092443458 399.1209341551205Q825.994741969819 395.2221029831651 829.5313866394615 393.21942467625905ZM856.0775267501524 420.830819205517L869.2653764520126 428.5006510191998L856.0775267501524 436.17048283288256L842.7192363413217 428.5006510191998L856.0775267501524 420.830819205517ZM842.7192363413217 428.5006510191998L856.0775267501524 436.17048283288256L856.0775267501524 451.5101464602481L842.7192363413217 443.84031464656533L842.7192363413217 428.5006510191998ZM842.7192363413217 443.84031464656533L856.0775267501524 451.5101464602481L829.5313866394615 466.84981008761366L816.194401319002 459.1799782739309L842.7192363413217 443.84031464656533ZM842.7192363413217 385.5495928625763L856.0775267501524 393.21942467625905L856.0775267501524 408.5590883036246L842.7192363413217 400.88925648994183L842.7192363413217 385.5495928625763ZM852.0721701363404 369.44294605384243L865.2813249265718 377.1127778675252Q861.2759683127597 374.8118283234204 856.0775267501524 377.8797610488935L856.0775267501524 377.8797610488935L829.5313866394615 393.21942467625905Q825.994741969819 395.2221029831651 822.9268092443458 399.1209341551205Q819.8588765188728 403.0410704154472 818.0266389189374 407.55774915017156Q816.194401319002 412.0957329732672 816.194401319002 416.2289201173074L816.194401319002 416.2289201173074L816.194401319002 474.51964190129644Q816.194401319002 480.65550735224264 820.1784528444429 482.95645689634745L820.1784528444429 482.95645689634745L806.820162435612 475.28662508266467Q802.8361109101712 472.98567553855986 802.8361109101712 466.84981008761366L802.8361109101712 466.84981008761366L802.8361109101712 408.5590883036246Q802.8361109101712 404.42590115958444 804.6896535984779 399.8879173364888Q806.5218911984132 395.3712386017645 809.5898239238863 391.4511023414377Q812.6577566493595 387.5522711694823 816.194401319002 385.5495928625763L816.194401319002 385.5495928625763L842.7192363413217 370.2099292352107Q848.0881186108995 367.1419965097376 852.0721701363404 369.44294605384243L852.0721701363404 369.44294605384243ZM895.9606521813029 416.2289201173074L895.9606521813029 400.88925648994183L935.8437776124533 377.8797610488935Q941.0422191750605 374.8118283234204 945.0475757888726 377.1127778675252Q949.0316273143135 379.4137274116301 949.0316273143135 385.5495928625763L949.0316273143135 385.5495928625763L949.0316273143135 459.1799782739309L935.8437776124533 466.84981008761366L935.8437776124533 451.5101464602481Q935.8437776124533 455.49419798568886 933.9902349241465 460.09609707389853Q932.1579973242114 464.6979961621082 929.0900645987383 468.61813242243494Q926.022131873265 472.51696359439035 922.4854872036225 474.51964190129644L922.4854872036225 474.51964190129644L909.2976375017623 482.1894737149792Q903.9287552321845 485.25740644045226 899.9447037067437 482.95645689634745Q895.9606521813029 480.65550735224264 895.9606521813029 474.51964190129644L895.9606521813029 474.51964190129644L895.9606521813029 453.0441128229847Q895.9606521813029 448.91092567894447 897.7928897812383 444.37294185584886Q899.6251273811736 439.8562631211246 902.6930601066467 435.9361268607978Q905.7609928321198 432.03729568884245 909.2976375017623 430.03461738193636L909.2976375017623 430.03461738193636L935.8437776124533 414.6949537545708L935.8437776124533 393.21942467625905L895.9606521813029 416.2289201173074ZM909.2976375017623 445.3742810093019L909.2976375017623 466.84981008761366L935.8437776124533 451.5101464602481L935.8437776124533 430.03461738193636L909.2976375017623 445.3742810093019ZM922.4854872036225 385.5495928625763L935.8437776124533 393.21942467625905L935.8437776124533 414.6949537545708L922.4854872036225 407.025121940888L922.4854872036225 385.5495928625763ZM922.4854872036225 443.84031464656533L935.8437776124533 451.5101464602481L935.8437776124533 466.84981008761366L922.4854872036225 459.1799782739309L922.4854872036225 443.84031464656533ZM922.4854872036225 422.3647855682536L935.8437776124533 430.03461738193636L935.8437776124533 451.5101464602481L922.4854872036225 443.84031464656533L922.4854872036225 422.3647855682536ZM922.4854872036225 443.84031464656533L935.8437776124533 451.5101464602481L909.2976375017623 466.84981008761366L895.9606521813029 459.1799782739309L922.4854872036225 443.84031464656533ZM922.4854872036225 407.025121940888L935.8437776124533 414.6949537545708L909.2976375017623 430.03461738193636Q905.7609928321198 432.03729568884245 902.6930601066467 435.9361268607978Q899.6251273811736 439.8562631211246 897.7928897812383 444.37294185584886Q895.9606521813029 448.91092567894447 895.9606521813029 453.0441128229847L895.9606521813029 453.0441128229847L895.9606521813029 474.51964190129644Q895.9606521813029 480.65550735224264 899.9447037067437 482.95645689634745L899.9447037067437 482.95645689634745L886.5864132979128 475.28662508266467Q882.602361772472 472.98567553855986 882.602361772472 466.84981008761366L882.602361772472 466.84981008761366L882.602361772472 445.3742810093019Q882.602361772472 441.2410938652617 884.4559044607787 436.7031100421661Q886.2881420607141 432.18643130744175 889.3560747861872 428.266295047115Q892.4240075116603 424.3674638751596 895.9606521813029 422.3647855682536L895.9606521813029 422.3647855682536L922.4854872036225 407.025121940888ZM931.8384209986411 369.44294605384243L945.0475757888726 377.1127778675252Q941.0422191750605 374.8118283234204 935.8437776124533 377.8797610488935L935.8437776124533 377.8797610488935L895.9606521813029 400.88925648994183L882.602361772472 393.21942467625905L922.4854872036225 370.2099292352107Q927.8543694732004 367.1419965097376 931.8384209986411 369.44294605384243L931.8384209986411 369.44294605384243ZM882.602361772472 393.21942467625905L895.9606521813029 400.88925648994183L895.9606521813029 416.2289201173074L882.602361772472 408.5590883036246L882.602361772472 393.21942467625905ZM975.7269030436037 483.72344007771574L975.7269030436037 407.025121940888L989.0638883640631 399.35529012720525L989.0638883640631 414.6949537545708L1002.2517380659233 407.025121940888Q1002.2517380659233 402.89193479684786 1004.10528075423 398.3539509737522Q1005.9375183541654 393.8372722390279 1009.0054510796384 389.9171359787012Q1012.0733838051115 386.0183048067458 1015.6100284747541 384.0156264998397L1015.6100284747541 384.0156264998397L1028.7978781766142 376.3457946861569L1028.7978781766142 391.6854583135225L1015.6100284747541 399.35529012720525Q1015.6100284747541 403.33934165264606 1013.7564857864475 407.9412407408557Q1011.9242481865122 412.54313982906535 1008.856315461039 416.4632760893921Q1005.7883827355658 420.3621072613475 1002.2517380659233 422.3647855682536L1002.2517380659233 422.3647855682536L989.0638883640631 430.03461738193636L989.0638883640631 476.053608264033L975.7269030436037 483.72344007771574ZM962.3686126347728 399.35529012720525L975.7269030436037 407.025121940888L975.7269030436037 483.72344007771574L962.3686126347728 476.053608264033L962.3686126347728 399.35529012720525ZM1015.6100284747541 368.67596287247414L1028.7978781766142 376.3457946861569L1015.6100284747541 384.0156264998397Q1012.0733838051115 386.0183048067458 1009.0054510796384 389.9171359787012Q1005.9375183541654 393.8372722390279 1004.10528075423 398.3539509737522Q1002.2517380659233 402.89193479684786 1002.2517380659233 407.025121940888L1002.2517380659233 407.025121940888L989.0638883640631 399.35529012720525Q989.0638883640631 395.2221029831651 990.8961259639985 390.68411916006943Q992.7496686523052 386.16744042534515 995.732381024293 382.2473041650184Q998.736398484652 378.348472993063 1002.2517380659233 376.3457946861569L1002.2517380659233 376.3457946861569L1015.6100284747541 368.67596287247414ZM989.0638883640631 399.35529012720525L1002.2517380659233 407.025121940888L989.0638883640631 414.6949537545708L975.7269030436037 407.025121940888L989.0638883640631 399.35529012720525ZM975.7269030436037 391.6854583135225L989.0638883640631 399.35529012720525L975.7269030436037 407.025121940888L962.3686126347728 399.35529012720525L975.7269030436037 391.6854583135225ZM1101.9595516437994 362.54009742152795L1101.9595516437994 362.54009742152795L1135.0889640612347 343.365517887321Q1140.3087107122133 340.2975851618479 1144.3779825911392 342.5985347059527Q1148.4472544700654 344.8994842500576 1148.4472544700654 351.0353497010038L1148.4472544700654 351.0353497010038L1148.4472544700654 366.37501332836933L1135.0889640612347 374.0448451420521L1135.0889640612347 358.70518151468656L1101.9595516437994 377.8797610488935L1101.9595516437994 466.84981008761366L1135.0889640612347 447.6752305534067L1135.0889640612347 432.33556692604117L1148.4472544700654 424.6657351123584L1148.4472544700654 440.00539873972394Q1148.4472544700654 443.98945026516475 1146.5297965166446 448.59134935337437Q1144.612338563224 453.19324844158405 1141.608321102865 457.1133847019108Q1138.6256087308773 461.0122158738662 1135.0889640612347 463.0148941807723L1135.0889640612347 463.0148941807723L1101.9595516437994 482.1894737149792Q1096.5906693742213 485.25740644045226 1092.6066178487806 482.95645689634745Q1088.62256632334 480.65550735224264 1088.62256632334 474.51964190129644L1088.62256632334 474.51964190129644L1088.62256632334 385.5495928625763Q1088.62256632334 381.4164057185361 1090.4548039232752 376.87842189544045Q1092.3083466115818 372.3617431607162 1095.376279337055 368.44160690038944Q1098.444212062528 364.542775728434 1101.9595516437994 362.54009742152795ZM1135.0889640612347 416.9959032986756L1148.4472544700654 424.6657351123584L1135.0889640612347 432.33556692604117L1121.751978740775 424.6657351123584L1135.0889640612347 416.9959032986756ZM1121.751978740775 424.6657351123584L1135.0889640612347 432.33556692604117L1135.0889640612347 447.6752305534067L1121.751978740775 440.00539873972394L1121.751978740775 424.6657351123584ZM1121.751978740775 440.00539873972394L1135.0889640612347 447.6752305534067L1101.9595516437994 466.84981008761366L1088.62256632334 459.1799782739309L1121.751978740775 440.00539873972394ZM1121.751978740775 351.0353497010038L1135.0889640612347 358.70518151468656L1135.0889640612347 374.0448451420521L1121.751978740775 366.37501332836933L1121.751978740775 351.0353497010038ZM1131.104912535794 334.92870289227L1144.4632029446248 342.5985347059527Q1140.3087107122133 340.2975851618479 1135.0889640612347 343.365517887321L1135.0889640612347 343.365517887321L1101.9595516437994 362.54009742152795Q1098.444212062528 364.542775728434 1095.376279337055 368.44160690038944Q1092.3083466115818 372.3617431607162 1090.4548039232752 376.87842189544045Q1088.62256632334 381.4164057185361 1088.62256632334 385.5495928625763L1088.62256632334 385.5495928625763L1088.62256632334 474.51964190129644Q1088.62256632334 480.65550735224264 1092.6066178487806 482.95645689634745L1092.6066178487806 482.95645689634745L1079.2696325283212 475.28662508266467Q1075.264275914509 472.98567553855986 1075.264275914509 466.84981008761366L1075.264275914509 466.84981008761366L1075.264275914509 377.8797610488935Q1075.264275914509 373.74657390485334 1077.1178186028158 369.2085900817577Q1078.950056202751 364.6919113470334 1082.0179889282242 360.7717750867066Q1085.0859216536974 356.87294391475126 1088.62256632334 354.87026560784517L1088.62256632334 354.87026560784517L1121.751978740775 335.6956860736383Q1127.120861010353 332.62775334816513 1131.104912535794 334.92870289227L1131.104912535794 334.92870289227ZM1188.3303799012158 393.21942467625905L1188.3303799012158 393.21942467625905L1214.8552149235354 377.8797610488935Q1220.074961574514 374.8118283234204 1224.0590130999549 377.1127778675252Q1228.064369713767 379.4137274116301 1228.064369713767 385.5495928625763L1228.064369713767 385.5495928625763L1228.064369713767 408.5590883036246Q1228.064369713767 412.54313982906535 1226.2108270254603 417.14503891727503Q1224.378589425525 421.7469380054847 1221.3745719651658 425.66707426581144Q1218.3918595931782 429.56590543776684 1214.8552149235354 431.56858374467294L1214.8552149235354 431.56858374467294L1201.518229603076 439.23841555835565Q1196.2984829520974 442.30634828382875 1192.3144314266565 440.00539873972394Q1188.3303799012158 437.70444919561913 1188.3303799012158 431.56858374467294L1188.3303799012158 431.56858374467294L1188.3303799012158 466.84981008761366L1228.064369713767 443.84031464656533L1228.064369713767 459.1799782739309L1188.3303799012158 482.1894737149792Q1182.961497631638 485.25740644045226 1178.9774461061972 482.95645689634745Q1174.972089492385 480.65550735224264 1174.972089492385 474.51964190129644L1174.972089492385 474.51964190129644L1174.972089492385 416.2289201173074Q1174.972089492385 412.0957329732672 1176.8256321806916 407.55774915017156Q1178.6578697806272 403.0410704154472 1181.7258025061 399.1209341551205Q1184.7937352315735 395.2221029831651 1188.3303799012158 393.21942467625905ZM1214.8552149235354 416.2289201173074L1214.8552149235354 393.21942467625905L1188.3303799012158 408.5590883036246L1188.3303799012158 431.56858374467294L1214.8552149235354 416.2289201173074ZM1214.8552149235354 436.17048283288256L1228.064369713767 443.84031464656533L1188.3303799012158 466.84981008761366L1174.972089492385 459.1799782739309L1214.8552149235354 436.17048283288256ZM1201.518229603076 385.5495928625763L1214.8552149235354 393.21942467625905L1214.8552149235354 416.2289201173074L1201.518229603076 408.5590883036246L1201.518229603076 385.5495928625763ZM1174.972089492385 423.8987519309901L1188.3303799012158 431.56858374467294Q1188.3303799012158 437.70444919561913 1192.3144314266565 440.00539873972394L1192.3144314266565 440.00539873972394L1178.9774461061972 432.33556692604117Q1174.972089492385 430.03461738193636 1174.972089492385 423.8987519309901L1174.972089492385 423.8987519309901ZM1201.518229603076 408.5590883036246L1214.8552149235354 416.2289201173074L1188.3303799012158 431.56858374467294L1174.972089492385 423.8987519309901L1201.518229603076 408.5590883036246ZM1210.8711633980947 369.44294605384243L1224.0590130999549 377.1127778675252Q1220.074961574514 374.8118283234204 1214.8552149235354 377.8797610488935L1214.8552149235354 377.8797610488935L1188.3303799012158 393.21942467625905Q1184.7937352315735 395.2221029831651 1181.7258025061 399.1209341551205Q1178.6578697806272 403.0410704154472 1176.8256321806916 407.55774915017156Q1174.972089492385 412.0957329732672 1174.972089492385 416.2289201173074L1174.972089492385 416.2289201173074L1174.972089492385 474.51964190129644Q1174.972089492385 480.65550735224264 1178.9774461061972 482.95645689634745L1178.9774461061972 482.95645689634745L1165.6191556973663 475.28662508266467Q1161.6351041719254 472.98567553855986 1161.6351041719254 466.84981008761366L1161.6351041719254 466.84981008761366L1161.6351041719254 408.5590883036246Q1161.6351041719254 404.42590115958444 1163.467341771861 399.8879173364888Q1165.3208844601677 395.3712386017645 1168.3888171856406 391.4511023414377Q1171.4567499111138 387.5522711694823 1174.972089492385 385.5495928625763L1174.972089492385 385.5495928625763L1201.518229603076 370.2099292352107Q1206.8871118726538 367.1419965097376 1210.8711633980947 369.44294605384243L1210.8711633980947 369.44294605384243ZM1254.738340354686 483.72344007771574L1254.738340354686 407.025121940888L1268.0966307635167 399.35529012720525L1268.0966307635167 414.6949537545708L1281.2844804653769 407.025121940888Q1281.2844804653769 402.89193479684786 1283.1167180653124 398.3539509737522Q1284.9702607536187 393.8372722390279 1288.0381934790921 389.9171359787012Q1291.106126204565 386.0183048067458 1294.6214657858363 384.0156264998397L1294.6214657858363 384.0156264998397L1307.8306205760678 376.3457946861569L1307.8306205760678 391.6854583135225L1294.6214657858363 399.35529012720525Q1294.6214657858363 403.33934165264606 1292.7892281859013 407.9412407408557Q1290.9569905859657 412.54313982906535 1287.8890578604928 416.4632760893921Q1284.8211251350194 420.3621072613475 1281.2844804653769 422.3647855682536L1281.2844804653769 422.3647855682536L1268.0966307635167 430.03461738193636L1268.0966307635167 476.053608264033L1254.738340354686 483.72344007771574ZM1241.4013550342265 399.35529012720525L1254.738340354686 407.025121940888L1254.738340354686 483.72344007771574L1241.4013550342265 476.053608264033L1241.4013550342265 399.35529012720525ZM1294.6214657858363 368.67596287247414L1307.8306205760678 376.3457946861569L1294.6214657858363 384.0156264998397Q1291.106126204565 386.0183048067458 1288.0381934790921 389.9171359787012Q1284.9702607536187 393.8372722390279 1283.1167180653124 398.3539509737522Q1281.2844804653769 402.89193479684786 1281.2844804653769 407.025121940888L1281.2844804653769 407.025121940888L1268.0966307635167 399.35529012720525Q1268.0966307635167 395.2221029831651 1269.9288683634522 390.68411916006943Q1271.782411051759 386.16744042534515 1274.7651234237464 382.2473041650184Q1277.7478357957343 378.348472993063 1281.2844804653769 376.3457946861569L1281.2844804653769 376.3457946861569L1294.6214657858363 368.67596287247414ZM1268.0966307635167 399.35529012720525L1281.2844804653769 407.025121940888L1268.0966307635167 414.6949537545708L1254.738340354686 407.025121940888L1268.0966307635167 399.35529012720525ZM1254.738340354686 391.6854583135225L1268.0966307635167 399.35529012720525L1254.738340354686 407.025121940888L1241.4013550342265 399.35529012720525L1254.738340354686 391.6854583135225ZM1327.7721832916432 468.38377645035024L1347.713746007218 456.8790287298261L1347.713746007218 410.8600378477294L1327.7721832916432 422.3647855682536L1327.7721832916432 407.025121940888L1380.8431584246537 376.3457946861569L1380.8431584246537 391.6854583135225L1360.9015957090783 403.19020603404664L1360.9015957090783 449.2091969161433L1380.8431584246537 437.70444919561913L1380.8431584246537 453.0441128229847L1327.7721832916432 483.72344007771574L1327.7721832916432 468.38377645035024ZM1354.2970183139628 377.8797610488935L1354.2970183139628 377.8797610488935Q1350.3129667885219 380.1807105929983 1347.6285256537326 378.6467442302618Q1344.9440845189438 377.1127778675252 1344.9440845189438 372.51087877931553L1344.9440845189438 372.51087877931553Q1344.9440845189438 367.9089796911059 1347.6285256537326 363.30708060289624Q1350.3129667885219 358.70518151468656 1354.2970183139628 356.40423197058175L1354.2970183139628 356.40423197058175Q1358.2810698394032 354.1032824264769 1360.9655109741925 355.63724878921346Q1363.6499521089813 357.17121515195004 1363.6499521089813 361.77311424015966L1363.6499521089813 361.77311424015966Q1363.6499521089813 366.37501332836933 1360.9655109741925 370.976912416579Q1358.2810698394032 375.5788115047887 1354.2970183139628 377.8797610488935ZM1334.3554555983874 449.2091969161433L1347.713746007218 456.8790287298261L1327.7721832916432 468.38377645035024L1314.413892882812 460.71394463666746L1334.3554555983874 449.2091969161433ZM1314.413892882812 460.71394463666746L1327.7721832916432 468.38377645035024L1327.7721832916432 483.72344007771574L1314.413892882812 476.053608264033L1314.413892882812 460.71394463666746ZM1367.6553087227935 430.03461738193636L1380.8431584246537 437.70444919561913L1360.9015957090783 449.2091969161433L1347.713746007218 441.5393651024605L1367.6553087227935 430.03461738193636ZM1334.3554555983874 403.19020603404664L1347.713746007218 410.8600378477294L1347.713746007218 456.8790287298261L1334.3554555983874 449.2091969161433L1334.3554555983874 403.19020603404664ZM1367.6553087227935 368.67596287247414L1380.8431584246537 376.3457946861569L1327.7721832916432 407.025121940888L1314.413892882812 399.35529012720525L1367.6553087227935 368.67596287247414ZM1314.413892882812 399.35529012720525L1327.7721832916432 407.025121940888L1327.7721832916432 422.3647855682536L1314.413892882812 414.6949537545708L1314.413892882812 399.35529012720525ZM1347.713746007218 347.9674169755307L1361.0507313276776 355.63724878921346Q1358.2810698394032 354.1032824264769 1354.2970183139628 356.40423197058175L1354.2970183139628 356.40423197058175Q1350.3129667885219 358.70518151468656 1347.6285256537326 363.30708060289624Q1344.9440845189438 367.9089796911059 1344.9440845189438 372.51087877931553L1344.9440845189438 372.51087877931553Q1344.9440845189438 377.1127778675252 1347.713746007218 378.6467442302618L1347.713746007218 378.6467442302618L1334.3554555983874 370.976912416579Q1331.7562348170836 369.44294605384243 1331.7562348170836 364.8410469656328L1331.7562348170836 364.8410469656328Q1331.7562348170836 360.23914787742314 1334.3554555983874 355.63724878921346Q1336.9759814680624 351.0353497010038 1341.1091686121026 348.73440015689897L1341.1091686121026 348.73440015689897Q1345.093220137543 346.4334506127941 1347.713746007218 347.9674169755307L1347.713746007218 347.9674169755307ZM1407.5384341539439 483.72344007771574L1407.5384341539439 400.88925648994183L1420.8754194744033 393.21942467625905L1420.8754194744033 408.5590883036246Q1420.8754194744033 404.42590115958444 1422.7076570743388 399.8879173364888Q1424.5611997626452 395.3712386017645 1427.543912134633 391.4511023414377Q1430.5479295949922 387.5522711694823 1434.0632691762635 385.5495928625763L1434.0632691762635 385.5495928625763L1447.4215595850942 377.8797610488935Q1452.6200011477013 374.8118283234204 1456.6253577615134 377.1127778675252Q1460.6094092869544 379.4137274116301 1460.6094092869544 385.5495928625763L1460.6094092869544 385.5495928625763L1460.6094092869544 453.0441128229847L1447.4215595850942 460.71394463666746L1447.4215595850942 393.21942467625905L1420.8754194744033 408.5590883036246L1420.8754194744033 476.053608264033L1407.5384341539439 483.72344007771574ZM1434.0632691762635 385.5495928625763L1447.4215595850942 393.21942467625905L1447.4215595850942 460.71394463666746L1434.0632691762635 453.0441128229847L1434.0632691762635 385.5495928625763ZM1394.1801437451131 393.21942467625905L1407.5384341539439 400.88925648994183L1407.5384341539439 483.72344007771574L1394.1801437451131 476.053608264033L1394.1801437451131 393.21942467625905ZM1443.416202971282 369.44294605384243L1456.6253577615134 377.1127778675252Q1452.6200011477013 374.8118283234204 1447.4215595850942 377.8797610488935L1447.4215595850942 377.8797610488935L1434.0632691762635 385.5495928625763Q1430.5479295949922 387.5522711694823 1427.543912134633 391.4511023414377Q1424.5611997626452 395.3712386017645 1422.7076570743388 399.8879173364888Q1420.8754194744033 404.42590115958444 1420.8754194744033 408.5590883036246L1420.8754194744033 408.5590883036246L1407.5384341539439 400.88925648994183Q1407.5384341539439 396.75606934590166 1409.370671753879 392.218085522806Q1411.2029093538144 387.7014067880817 1414.2708420792878 383.78127052775494Q1417.3387748047608 379.88243935579953 1420.8754194744033 377.8797610488935L1420.8754194744033 377.8797610488935L1434.0632691762635 370.2099292352107Q1439.4321514458416 367.1419965097376 1443.416202971282 369.44294605384243L1443.416202971282 369.44294605384243ZM1407.5384341539439 385.5495928625763L1420.8754194744033 393.21942467625905L1407.5384341539439 400.88925648994183L1394.1801437451131 393.21942467625905L1407.5384341539439 385.5495928625763ZM1500.641670336704 393.21942467625905L1500.641670336704 393.21942467625905L1527.187810447395 377.8797610488935Q1532.3862520100024 374.8118283234204 1536.3916086238141 377.1127778675252Q1540.375660149255 379.4137274116301 1540.375660149255 385.5495928625763L1540.375660149255 385.5495928625763L1540.375660149255 443.84031464656533Q1540.375660149255 447.82436617200614 1538.5221174609483 452.42626526021576Q1536.6898798610132 457.02816434842543 1533.7071674890253 460.94830060875216Q1530.7031500286662 464.84713178070757 1527.187810447395 466.84981008761366L1527.187810447395 466.84981008761366L1500.641670336704 482.1894737149792Q1495.272788067126 485.25740644045226 1491.2887365416855 482.95645689634745Q1487.3046850162445 480.65550735224264 1487.3046850162445 474.51964190129644L1487.3046850162445 474.51964190129644L1487.3046850162445 416.2289201173074Q1487.3046850162445 412.0957329732672 1489.13692261618 407.55774915017156Q1490.9691602161151 403.0410704154472 1494.0370929415885 399.1209341551205Q1497.1050256670615 395.2221029831651 1500.641670336704 393.21942467625905ZM1500.641670336704 408.5590883036246L1500.641670336704 466.84981008761366L1527.187810447395 451.5101464602481L1527.187810447395 393.21942467625905L1500.641670336704 408.5590883036246ZM1513.8295200385642 385.5495928625763L1527.187810447395 393.21942467625905L1527.187810447395 451.5101464602481L1513.8295200385642 443.84031464656533L1513.8295200385642 385.5495928625763ZM1513.8295200385642 443.84031464656533L1527.187810447395 451.5101464602481L1500.641670336704 466.84981008761366L1487.3046850162445 459.1799782739309L1513.8295200385642 443.84031464656533ZM1523.1824538335832 369.44294605384243L1536.3916086238141 377.1127778675252Q1532.3862520100024 374.8118283234204 1527.187810447395 377.8797610488935L1527.187810447395 377.8797610488935L1500.641670336704 393.21942467625905Q1497.1050256670615 395.2221029831651 1494.0370929415885 399.1209341551205Q1490.9691602161151 403.0410704154472 1489.13692261618 407.55774915017156Q1487.3046850162445 412.0957329732672 1487.3046850162445 416.2289201173074L1487.3046850162445 416.2289201173074L1487.3046850162445 474.51964190129644Q1487.3046850162445 480.65550735224264 1491.2887365416855 482.95645689634745L1491.2887365416855 482.95645689634745L1477.9304461328547 475.28662508266467Q1473.9463946074138 472.98567553855986 1473.9463946074138 466.84981008761366L1473.9463946074138 466.84981008761366L1473.9463946074138 408.5590883036246Q1473.9463946074138 404.42590115958444 1475.7999372957206 399.8879173364888Q1477.6321748956557 395.3712386017645 1480.700107621129 391.4511023414377Q1483.768040346602 387.5522711694823 1487.3046850162445 385.5495928625763L1487.3046850162445 385.5495928625763L1513.8295200385642 370.2099292352107Q1519.1984023081422 367.1419965097376 1523.1824538335832 369.44294605384243L1523.1824538335832 369.44294605384243Z " fill="#ddc6b6" transform="matrix(0.5680432408124276,0,0,0.5680432408124275,0,67.70293978927583)"/></g></svg>